<svg width="43" height="30" viewBox="0 0 43 30" fill="none" xmlns="http://www.w3.org/2000/svg">
<path d="M42.3704 15.7549C42.3708 15.5491 42.3025 15.349 42.1763 15.1864L39.4958 11.7572L36.5195 5.51814C36.0664 4.57432 35.3565 3.77722 34.4713 3.21814C33.5861 2.65907 32.5614 2.36062 31.5144 2.35699H26.0933V0.924312C26.0933 0.679169 25.9959 0.444067 25.8226 0.270725C25.6492 0.0973827 25.4141 0 25.169 0H5.40722C5.16208 0 4.92697 0.0973827 4.75363 0.270725C4.58029 0.444067 4.48291 0.679169 4.48291 0.924312C4.48291 1.16945 4.58029 1.40456 4.75363 1.5779C4.92697 1.75124 5.16208 1.84862 5.40722 1.84862H24.2447V12.1917C24.2447 12.4368 24.3421 12.6719 24.5154 12.8453C24.6888 13.0186 24.9239 13.116 25.169 13.116H38.2249L40.5357 16.0692V23.9582H36.9771C36.7668 22.77 36.1448 21.6939 35.2203 20.9186C34.2957 20.1433 33.1277 19.7184 31.9211 19.7184C30.7145 19.7184 29.5465 20.1433 28.6219 20.9186C27.6974 21.6939 27.0754 22.77 26.8651 23.9582H17.6959C17.4857 22.77 16.8637 21.6939 15.9391 20.9186C15.0146 20.1433 13.8465 19.7184 12.64 19.7184C11.4334 19.7184 10.2653 20.1433 9.34077 20.9186C8.41622 21.6939 7.79424 22.77 7.58397 23.9582H4.94506C4.69992 23.9582 4.46482 24.0555 4.29148 24.2289C4.11813 24.4022 4.02075 24.6373 4.02075 24.8825C4.02075 25.1276 4.11813 25.3627 4.29148 25.5361C4.46482 25.7094 4.69992 25.8068 4.94506 25.8068H7.59322C7.81389 26.9852 8.43961 28.0493 9.36207 28.8151C10.2845 29.5809 11.4457 30 12.6446 30C13.8435 30 15.0046 29.5809 15.9271 28.8151C16.8495 28.0493 17.4753 26.9852 17.6959 25.8068H26.8559C27.0765 26.9852 27.7023 28.0493 28.6247 28.8151C29.5472 29.5809 30.7083 30 31.9072 30C33.1061 30 34.2673 29.5809 35.1897 28.8151C36.1122 28.0493 36.7379 26.9852 36.9586 25.8068H40.5218C41.0121 25.8068 41.4823 25.612 41.829 25.2653C42.1757 24.9186 42.3704 24.4484 42.3704 23.9582V15.7549ZM26.0933 4.201H31.5283C32.2267 4.20123 32.9108 4.39929 33.5014 4.77226C34.0919 5.14523 34.5647 5.67784 34.865 6.30843L37.2359 11.2812H26.0933V4.201ZM12.64 28.1545C11.9878 28.1554 11.3501 27.9628 10.8075 27.6011C10.2649 27.2394 9.84186 26.7248 9.59188 26.1225C9.34191 25.5202 9.27626 24.8573 9.40326 24.2176C9.53026 23.578 9.84419 22.9904 10.3053 22.5293C10.7664 22.0682 11.354 21.7543 11.9936 21.6273C12.6332 21.5003 13.2962 21.5659 13.8985 21.8159C14.5008 22.0659 15.0154 22.489 15.3771 23.0315C15.7388 23.5741 15.9314 24.2119 15.9305 24.864C15.9293 25.7363 15.5822 26.5726 14.9654 27.1894C14.3485 27.8062 13.5123 28.1533 12.64 28.1545ZM31.9072 28.1545C31.2553 28.1545 30.618 27.9612 30.0761 27.5989C29.5341 27.2366 29.1117 26.7217 28.8624 26.1193C28.6132 25.5169 28.5482 24.8541 28.6757 24.2148C28.8032 23.5755 29.1175 22.9883 29.5788 22.5277C30.0401 22.067 30.6277 21.7536 31.2672 21.6269C31.9067 21.5003 32.5694 21.5662 33.1714 21.8163C33.7735 22.0665 34.2878 22.4895 34.6493 23.032C35.0108 23.5745 35.2033 24.2121 35.2024 24.864C35.2012 25.7371 34.8535 26.5741 34.2356 27.191C33.6178 27.808 32.7804 28.1545 31.9072 28.1545Z" fill="white"/>
<path d="M9.24313 17.7653C9.24313 17.5201 9.14575 17.285 8.9724 17.1117C8.79906 16.9384 8.56396 16.841 8.31882 16.841H3.2351C2.98996 16.841 2.75486 16.9384 2.58152 17.1117C2.40817 17.285 2.31079 17.5201 2.31079 17.7653C2.31079 18.0104 2.40817 18.2455 2.58152 18.4189C2.75486 18.5922 2.98996 18.6896 3.2351 18.6896H8.31882C8.56396 18.6896 8.79906 18.5922 8.9724 18.4189C9.14575 18.2455 9.24313 18.0104 9.24313 17.7653Z" fill="white"/>
<path d="M0.924311 13.1437H11.5539C11.799 13.1437 12.0341 13.0463 12.2075 12.873C12.3808 12.6997 12.4782 12.4646 12.4782 12.2194C12.4782 11.9743 12.3808 11.7392 12.2075 11.5658C12.0341 11.3925 11.799 11.2951 11.5539 11.2951H0.924311C0.679169 11.2951 0.444067 11.3925 0.270725 11.5658C0.0973827 11.7392 0 11.9743 0 12.2194C0 12.4646 0.0973827 12.6997 0.270725 12.873C0.444067 13.0463 0.679169 13.1437 0.924311 13.1437Z" fill="white"/>
<path d="M2.31079 6.67352C2.31079 6.91866 2.40817 7.15376 2.58152 7.32711C2.75486 7.50045 2.98996 7.59783 3.2351 7.59783H13.8647C14.1098 7.59783 14.3449 7.50045 14.5183 7.32711C14.6916 7.15376 14.789 6.91866 14.789 6.67352C14.789 6.42838 14.6916 6.19327 14.5183 6.01993C14.3449 5.84659 14.1098 5.74921 13.8647 5.74921H3.2351C2.98996 5.74921 2.75486 5.84659 2.58152 6.01993C2.40817 6.19327 2.31079 6.42838 2.31079 6.67352Z" fill="white"/>
</svg>
