<svg width="28" height="28" viewBox="0 0 28 28" fill="none" xmlns="http://www.w3.org/2000/svg">
<path d="M15.499 13.994L26.755 2.72699C26.9536 2.52743 27.065 2.25731 27.0648 1.97578C27.0646 1.69426 26.9529 1.42428 26.754 1.22499C26.356 0.82899 25.655 0.82699 25.253 1.22699L14 12.494L2.74301 1.22399C2.34301 0.82899 1.64201 0.83099 1.24401 1.22599C1.14522 1.32438 1.06702 1.44147 1.01396 1.57041C0.96091 1.69935 0.934069 1.83757 0.935006 1.97699C0.935006 2.26099 1.04501 2.52699 1.24401 2.72399L12.5 13.993L1.24501 25.263C1.04639 25.4629 0.935165 25.7333 0.935727 26.0151C0.93629 26.2969 1.0486 26.5669 1.24801 26.766C1.44101 26.957 1.71401 27.067 1.99601 27.067H2.00201C2.28501 27.066 2.55801 26.955 2.74701 26.762L14 15.495L25.257 26.765C25.456 26.963 25.722 27.073 26.004 27.073C26.1435 27.0734 26.2816 27.0462 26.4105 26.993C26.5394 26.9399 26.6565 26.8617 26.7551 26.7631C26.8537 26.6645 26.9319 26.5474 26.9851 26.4185C27.0382 26.2896 27.0654 26.1514 27.065 26.012C27.065 25.729 26.955 25.462 26.755 25.265L15.499 13.994Z" fill="#B083C0"/>
</svg>
