<svg width="42" height="38" viewBox="0 0 42 38" fill="none" xmlns="http://www.w3.org/2000/svg">
<path d="M38.1377 3.29006C37.1027 2.24524 35.8728 1.4167 34.5187 0.852084C33.1647 0.287465 31.7131 -0.00210773 30.2476 1.1549e-05C27.1644 1.1549e-05 24.3714 1.26023 22.3519 3.29568L21 4.67386L19.65 3.29006C17.6305 1.25648 14.8411 1.1549e-05 11.7599 1.1549e-05C8.67856 1.1549e-05 5.88922 1.25836 3.86974 3.29006L3.26725 3.89676C1.24776 5.93034 0 8.73914 0 11.8419C0 14.9447 1.24962 17.7535 3.26725 19.7871L19.1646 35.7954L20.9591 37.6886L21.0019 37.6455L21.0484 37.6923L22.7294 35.9059L38.7365 19.7871C40.7522 17.7517 42 14.9447 42 11.8419C42 8.73914 40.7541 5.93221 38.7365 3.89676L38.1377 3.29006ZM36.7672 17.7985L21.0037 33.672L5.24024 17.7985C3.72656 16.2742 2.78934 14.1676 2.78934 11.8401C2.78934 9.5125 3.72656 7.40589 5.24024 5.88165L5.84273 5.27495C6.61893 4.49132 7.54126 3.86988 8.55671 3.44634C9.57217 3.0228 10.6607 2.8055 11.7599 2.80694C12.858 2.80592 13.9456 3.02305 14.9603 3.4459C15.975 3.86876 16.8969 4.48903 17.6733 5.2712L20.9944 8.67548L24.3305 5.27495C25.8442 3.7507 27.9362 2.80694 30.2476 2.80694C32.559 2.80694 34.651 3.7507 36.1647 5.27495L36.7672 5.88165C38.279 7.40777 39.2144 9.51437 39.2144 11.8401C39.2144 14.1658 38.279 16.2724 36.7672 17.7985Z" fill="#F2994A"/>
</svg>
