<svg width="40" height="40" viewBox="0 0 40 40" fill="none" xmlns="http://www.w3.org/2000/svg">
<circle opacity="0.5" cx="20" cy="20" r="20" fill="#D7C1E0"/>
<path d="M15.9648 19.1748C15.9648 17.7158 16.3105 16.541 17.002 15.6504C17.6992 14.7598 18.6367 14.3145 19.8145 14.3145C20.8574 14.3145 21.6689 14.6719 22.249 15.3867L22.3545 14.4902H24.6572V23.6836C24.6572 24.5156 24.4668 25.2393 24.0859 25.8545C23.7109 26.4697 23.1807 26.9385 22.4951 27.2607C21.8096 27.583 21.0068 27.7441 20.0869 27.7441C19.3896 27.7441 18.71 27.6035 18.0479 27.3223C17.3857 27.0469 16.8848 26.6895 16.5449 26.25L17.6699 24.7031C18.3027 25.4121 19.0703 25.7666 19.9727 25.7666C20.6465 25.7666 21.1709 25.585 21.5459 25.2217C21.9209 24.8643 22.1084 24.3545 22.1084 23.6924V23.1826C21.5225 23.8447 20.752 24.1758 19.7969 24.1758C18.6543 24.1758 17.7285 23.7305 17.0195 22.8398C16.3164 21.9434 15.9648 20.7568 15.9648 19.2803V19.1748ZM18.5049 19.3594C18.5049 20.2207 18.6777 20.8975 19.0234 21.3896C19.3691 21.876 19.8438 22.1191 20.4473 22.1191C21.2207 22.1191 21.7744 21.8291 22.1084 21.249V17.25C21.7686 16.6699 21.2207 16.3799 20.4648 16.3799C19.8555 16.3799 19.375 16.6289 19.0234 17.127C18.6777 17.625 18.5049 18.3691 18.5049 19.3594Z" fill="white"/>
</svg>
