<svg width="40" height="40" viewBox="0 0 40 40" fill="none" xmlns="http://www.w3.org/2000/svg">
<circle opacity="0.5" cx="20" cy="20" r="20" fill="#D7C1E0"/>
<path d="M24.6328 25.3828C24.1582 25.9512 23.4873 26.3936 22.6201 26.71C21.7529 27.0205 20.792 27.1758 19.7373 27.1758C18.6299 27.1758 17.6572 26.9355 16.8193 26.4551C15.9873 25.9688 15.3428 25.2656 14.8857 24.3457C14.4346 23.4258 14.2031 22.3447 14.1914 21.1025V20.2324C14.1914 18.9551 14.4053 17.8506 14.833 16.9189C15.2666 15.9814 15.8877 15.2666 16.6963 14.7744C17.5107 14.2764 18.4629 14.0273 19.5527 14.0273C21.0703 14.0273 22.2568 14.3906 23.1123 15.1172C23.9678 15.8379 24.4746 16.8896 24.6328 18.2725H22.0664C21.9492 17.54 21.6885 17.0039 21.2842 16.6641C20.8857 16.3242 20.335 16.1543 19.6318 16.1543C18.7354 16.1543 18.0527 16.4912 17.584 17.165C17.1152 17.8389 16.8779 18.8408 16.8721 20.1709V20.9883C16.8721 22.3301 17.127 23.3438 17.6367 24.0293C18.1465 24.7148 18.8936 25.0576 19.8779 25.0576C20.8682 25.0576 21.5742 24.8467 21.9961 24.4248V22.2188H19.5967V20.2764H24.6328V25.3828Z" fill="white"/>
</svg>
