<svg width="22" height="20" viewBox="0 0 22 20" fill="none" xmlns="http://www.w3.org/2000/svg">
<path d="M19.9769 1.72829C19.4347 1.17944 18.7905 0.744203 18.0812 0.447605C17.372 0.151007 16.6116 -0.0011072 15.844 6.06671e-06C14.229 6.06671e-06 12.766 0.662006 11.7081 1.73124L11 2.45521L10.2928 1.72829C9.23501 0.660039 7.77393 6.06671e-06 6.15992 6.06671e-06C4.54591 6.06671e-06 3.08483 0.661022 2.02701 1.72829L1.71141 2.04699C0.653591 3.11524 0 4.59072 0 6.22064C0 7.85056 0.654565 9.32604 1.71141 10.3943L10.0386 18.8036L10.9786 19.798L11.001 19.7754L11.0253 19.8L11.9059 18.8616L20.2905 10.3943C21.3464 9.32506 22 7.85056 22 6.22064C22 4.59072 21.3474 3.11623 20.2905 2.04699L19.9769 1.72829Z" fill="#F2994A"/>
</svg>
