<svg width="35" height="31" viewBox="0 0 35 31" fill="none" xmlns="http://www.w3.org/2000/svg">
<path d="M28.4521 11.5193C28.4521 12.1022 28.4521 12.6851 28.4521 13.2679C28.4521 14.6691 28.4521 16.0702 28.4521 17.4714C28.4521 19.1677 28.4521 20.8603 28.4521 22.5566C28.4521 24.0213 28.4521 25.4859 28.4521 26.9543C28.4521 27.6643 28.4335 28.3816 28.4521 29.0916C28.4521 29.1028 28.4521 29.1102 28.4521 29.1215C28.8252 28.7478 29.1983 28.3742 29.5714 28.0005C28.7693 28.0005 27.9671 28.0005 27.1612 28.0005C25.2323 28.0005 23.3072 28.0005 21.3783 28.0005C19.0613 28.0005 16.7407 28.0005 14.4238 28.0005C12.4091 28.0005 10.3944 28.0005 8.37964 28.0005C7.40213 28.0005 6.42462 27.9781 5.44712 28.0005C5.43219 28.0005 5.421 28.0005 5.40608 28.0005C5.77917 28.3742 6.15226 28.7478 6.52536 29.1215C6.52536 28.5386 6.52536 27.9557 6.52536 27.3728C6.52536 25.9717 6.52536 24.5705 6.52536 23.1694C6.52536 21.4731 6.52536 19.7805 6.52536 18.0842C6.52536 16.6195 6.52536 15.1548 6.52536 13.6864C6.52536 12.9765 6.54401 12.2591 6.52536 11.5492C6.52536 11.538 6.52536 11.5305 6.52536 11.5193C6.41716 11.7846 6.30523 12.0461 6.19704 12.3114C6.76041 11.8257 7.32751 11.34 7.89089 10.8542C8.6035 10.2415 9.31611 9.62869 10.025 9.01592C11.1517 8.04446 12.2822 7.073 13.409 6.10154C14.476 5.18238 15.5468 4.26323 16.6138 3.34408C17.1586 2.87329 17.7219 2.41372 18.2555 1.93172C18.2629 1.92425 18.2704 1.91678 18.2778 1.91304C17.7518 1.91304 17.222 1.91304 16.6959 1.91304C17.1436 2.29789 17.5951 2.68647 18.0428 3.07132C19.0725 3.95685 20.1023 4.84237 21.1283 5.7279C22.2737 6.71431 23.4228 7.70071 24.5682 8.68712C25.3554 9.36714 26.1427 10.0434 26.9336 10.7235C27.5007 11.2092 28.0641 11.6949 28.6312 12.1844C28.6797 12.2255 28.7282 12.2703 28.7767 12.3114C29.0043 12.5095 29.258 12.6402 29.5677 12.6402C29.8438 12.6402 30.1684 12.5169 30.3586 12.3114C30.7429 11.8929 30.8325 11.1345 30.3586 10.7272C29.7953 10.2415 29.2319 9.75573 28.6648 9.27C27.9522 8.65723 27.2396 8.04446 26.5307 7.43169C25.4039 6.46023 24.2735 5.48877 23.1467 4.51731C22.0797 3.59815 21.0089 2.679 19.9418 1.75985C19.3934 1.28906 18.8524 0.814541 18.3002 0.347492C18.2928 0.340019 18.2853 0.332546 18.2778 0.32881C17.7928 -0.0896665 17.1847 -0.0934029 16.6959 0.32881C16.2034 0.751022 15.7109 1.17697 15.2185 1.59918C14.1066 2.5557 12.9948 3.51222 11.883 4.46873C10.7003 5.48503 9.51758 6.50507 8.33487 7.52137C7.62972 8.12666 6.92457 8.73569 6.21942 9.34099C6.00676 9.52407 5.79409 9.70716 5.58143 9.89024C5.30534 10.1294 5.02552 10.3685 4.74943 10.6039C4.46961 10.8468 4.29052 11.1457 4.28306 11.538C4.26814 12.1844 4.28306 12.8345 4.28306 13.4809C4.28306 14.8447 4.28306 16.2085 4.28306 17.576C4.28306 19.1976 4.28306 20.8229 4.28306 22.4445C4.28306 23.8681 4.28306 25.2917 4.28306 26.7152C4.28306 27.4812 4.28306 28.2471 4.28306 29.0131C4.28306 29.0467 4.28306 29.0841 4.28306 29.1177C4.28306 29.723 4.7942 30.2386 5.40234 30.2386C6.2045 30.2386 7.00665 30.2386 7.81254 30.2386C9.74144 30.2386 11.6666 30.2386 13.5955 30.2386C15.9124 30.2386 18.2331 30.2386 20.55 30.2386C22.5647 30.2386 24.5794 30.2386 26.5941 30.2386C27.5716 30.2386 28.5491 30.2573 29.5266 30.2386C29.5416 30.2386 29.5528 30.2386 29.5677 30.2386C30.1721 30.2386 30.687 29.7267 30.687 29.1177C30.687 28.5348 30.687 27.952 30.687 27.3691C30.687 25.9679 30.687 24.5668 30.687 23.1656C30.687 21.4693 30.687 19.7767 30.687 18.0804C30.687 16.6157 30.687 15.1511 30.687 13.6827C30.687 12.969 30.7019 12.2591 30.687 11.5455C30.687 11.5343 30.687 11.5268 30.687 11.5156C30.687 10.929 30.1721 10.3685 29.5677 10.3947C28.9633 10.4245 28.4521 10.8916 28.4521 11.5193Z" fill="white"/>
<path d="M2.52205 15.4723C3.04438 15.0202 3.57044 14.5718 4.09277 14.1197C5.34637 13.0399 6.59997 11.9638 7.85357 10.884C9.37206 9.57628 10.8943 8.26854 12.4128 6.96081C13.7223 5.83241 15.0319 4.70776 16.3415 3.57937C16.9757 3.03386 17.6286 2.50329 18.248 1.93909C18.2554 1.93162 18.2666 1.92415 18.2741 1.91668C18.7181 1.53183 18.6957 0.721029 18.2741 0.332444C17.8003 -0.104714 17.166 -0.0748224 16.6922 0.332444C16.1698 0.784548 15.6438 1.23292 15.1215 1.68502C13.8679 2.76484 12.6143 3.84092 11.3607 4.92073C9.84216 6.22847 8.31994 7.53621 6.80144 8.84395C5.49188 9.97234 4.18232 11.097 2.87276 12.2254C2.23849 12.7709 1.58558 13.3015 0.966242 13.8657C0.95878 13.8731 0.947587 13.8806 0.940125 13.8881C0.496142 14.2729 0.518528 15.0837 0.940125 15.4723C1.41396 15.9095 2.04449 15.8833 2.52205 15.4723Z" fill="white"/>
<path d="M16.6959 1.91303C17.2182 2.36514 17.7443 2.8135 18.2666 3.26561C19.5202 4.34543 20.7738 5.42151 22.0274 6.50132C23.5459 7.80906 25.0681 9.1168 26.5866 10.4245C27.8962 11.5529 29.2058 12.6776 30.5153 13.806C31.1496 14.3515 31.7838 14.9045 32.4218 15.4462C32.4293 15.4537 32.4405 15.4612 32.448 15.4687C32.6755 15.6667 32.9292 15.7975 33.2389 15.7975C33.515 15.7975 33.8396 15.6742 34.0299 15.4687C34.4142 15.0502 34.5037 14.2917 34.0299 13.8844C33.5075 13.4323 32.9815 12.984 32.4591 12.5319C31.2056 11.452 29.952 10.376 28.6984 9.29615C27.1799 7.98841 25.6576 6.68067 24.1391 5.37293C22.8296 4.24454 21.52 3.11989 20.2104 1.9915C19.5762 1.44598 18.9419 0.892998 18.3039 0.351221C18.2965 0.343748 18.2853 0.336275 18.2778 0.328802C18.0502 0.130774 17.7965 0 17.4869 0C17.2108 0 16.8862 0.123301 16.6959 0.328802C16.3116 0.747278 16.2221 1.50577 16.6959 1.91303Z" fill="white"/>
<path d="M20.7664 16.2122C19.5202 16.2122 18.2704 16.2122 17.0242 16.2122C16.2706 16.2122 15.5132 16.2122 14.7595 16.2122C14.5879 16.2122 14.4163 16.2085 14.2447 16.2122C13.3679 16.2271 12.6926 16.8885 12.6627 17.7665C12.6329 18.7156 12.6627 19.6721 12.6627 20.6249C12.6627 22.3623 12.6627 24.0997 12.6627 25.8409C12.6627 26.917 12.6478 27.9968 12.6627 29.0729C12.6627 29.0915 12.6627 29.1065 12.6627 29.1252C12.6627 29.7305 13.1739 30.2461 13.782 30.2461C14.614 30.2461 15.4498 30.2461 16.2818 30.2461C17.6137 30.2461 18.9419 30.2461 20.2739 30.2461C20.5835 30.2461 20.8895 30.2461 21.1991 30.2461C21.8036 30.2461 22.3184 29.7342 22.3184 29.1252C22.3184 27.7502 22.3184 26.3752 22.3184 24.9965C22.3184 22.9228 22.3184 20.8528 22.3184 18.7791C22.3184 18.4951 22.3184 18.2112 22.3184 17.9235C22.3184 17.8712 22.3184 17.8226 22.3184 17.7703C22.296 16.8885 21.6282 16.2608 20.7664 16.2122C20.1806 16.1786 19.621 16.7502 19.6471 17.3331C19.6769 17.9683 20.1396 18.4167 20.7664 18.454C20.7813 18.454 20.7999 18.4578 20.8149 18.4578C20.7141 18.4428 20.6171 18.4316 20.5164 18.4167C20.55 18.4204 20.5798 18.4279 20.6097 18.4391C20.5201 18.4017 20.4306 18.3644 20.341 18.327C20.4679 18.3793 20.4343 18.4316 20.2739 18.2523C20.2366 18.2 20.1955 18.1514 20.1582 18.0991C20.1769 18.1252 20.1881 18.1551 20.1993 18.185C20.1619 18.0953 20.1246 18.0057 20.0873 17.916C20.0985 17.9459 20.106 17.9795 20.1097 18.0094C20.0948 17.9085 20.0836 17.8114 20.0687 17.7105C20.0911 18.0991 20.0724 18.4914 20.0724 18.88C20.0724 19.7879 20.0724 20.6959 20.0724 21.6038C20.0724 23.6439 20.0724 25.684 20.0724 27.7203C20.0724 28.1873 20.0724 28.6544 20.0724 29.1177C20.4455 28.7441 20.8186 28.3704 21.1917 27.9968C20.3597 27.9968 19.524 27.9968 18.6919 27.9968C17.36 27.9968 16.0318 27.9968 14.6998 27.9968C14.3902 27.9968 14.0842 27.9968 13.7746 27.9968C14.1477 28.3704 14.5208 28.7441 14.8938 29.1177C14.8938 27.8249 14.8938 26.5321 14.8938 25.2393C14.8938 23.203 14.8938 21.1667 14.8938 19.1303C14.8938 18.6595 14.8677 18.1775 14.8976 17.7068C14.8827 17.8076 14.8715 17.9048 14.8565 18.0057C14.8603 17.972 14.8677 17.9422 14.8789 17.9123C14.8416 18.0019 14.8043 18.0916 14.767 18.1813C14.8192 18.0542 14.8715 18.0879 14.6924 18.2485C14.6401 18.2859 14.5916 18.327 14.5394 18.3644C14.5655 18.3457 14.5954 18.3345 14.6252 18.3233C14.5357 18.3606 14.4461 18.398 14.3566 18.4354C14.3864 18.4241 14.42 18.4167 14.4499 18.4129C14.3491 18.4279 14.2521 18.4391 14.1514 18.454C14.8976 18.4092 15.655 18.4503 16.4011 18.4503C17.5801 18.4503 18.7591 18.4503 19.9381 18.4503C20.2142 18.4503 20.4865 18.4503 20.7626 18.4503C21.3484 18.4503 21.908 17.9347 21.8819 17.3294C21.8595 16.7241 21.3932 16.2122 20.7664 16.2122Z" fill="white"/>
</svg>
