<svg width="66" height="66" viewBox="0 0 66 66" fill="none" xmlns="http://www.w3.org/2000/svg">
<path d="M56.092 15.5924C55.6637 13.8993 55.4561 12.158 55.4743 10.412C55.6834 9.01008 55.5206 7.57709 55.0021 6.25735C54.4837 4.93762 53.628 3.77774 52.5212 2.89457C51.29 2.20125 49.898 1.84777 48.4872 1.87021C47.0765 1.89264 45.6975 2.29019 44.4909 3.02228C42.8796 3.69402 41.19 4.15944 39.4622 4.40755C33.9378 3.98161 28.4021 5.03817 23.4234 7.46879C18.4447 9.89941 14.2024 13.6165 11.1318 18.2386C8.06119 22.8606 6.27301 28.2211 5.95077 33.7698C5.62853 39.3185 6.78385 44.8556 9.29814 49.8126C9.72647 51.5056 9.93412 53.247 9.9159 54.993C9.70676 56.3949 9.86961 57.8278 10.388 59.1476C10.9065 60.4673 11.7622 61.6272 12.869 62.5104C14.1002 63.2037 15.4922 63.5572 16.9029 63.5347C18.3137 63.5123 19.6927 63.1148 20.8993 62.3827C22.4506 61.7041 24.079 61.2183 25.7482 60.9359C28.7714 61.2056 31.8171 61.0108 34.7803 60.3582C39.4506 59.3667 43.83 57.3121 47.5808 54.3527C51.3317 51.3933 54.3538 47.6081 56.4143 43.2891C58.4747 38.97 59.5185 34.2324 59.465 29.4415C59.4115 24.6506 58.2622 19.9343 56.1058 15.6562L56.092 15.5924ZM27.9967 21.1836C24.3695 21.9658 19.5666 29.1842 20.2949 32.8703C20.3767 33.29 20.2913 33.7249 20.0569 34.0816C19.8226 34.4383 19.458 34.6884 19.0415 34.7781C18.6187 34.852 18.1836 34.7587 17.8274 34.5177C17.4713 34.2767 17.2218 33.9069 17.1313 33.4857C15.9674 28.0889 21.949 19.0791 27.326 17.9195C27.7442 17.838 28.1778 17.9244 28.5337 18.1601C28.8896 18.3958 29.1393 18.7619 29.2294 19.1799C29.3142 19.6087 29.2342 20.0536 29.0056 20.4253C28.7769 20.7969 28.4165 21.0678 27.9967 21.1836Z" fill="#F2994A"/>
</svg>
