<svg width="30" height="32" viewBox="0 0 30 32" fill="none" xmlns="http://www.w3.org/2000/svg">
<path d="M16.1858 31.4958L18.9196 28.7059C18.9855 28.6387 19.0843 28.605 19.1502 28.6387L22.971 29.2437C23.0698 29.2437 23.1357 29.2773 23.2345 29.2773C24.058 29.2773 24.7497 28.6723 24.8814 27.8319L25.4743 23.9328C25.4743 23.8319 25.5402 23.7647 25.6061 23.7311L29.0646 21.9496C29.4598 21.7479 29.7563 21.3782 29.888 20.9412C30.0198 20.5042 29.9868 20.0336 29.7892 19.6303L28.0435 16.1008C28.0105 16.0336 28.0105 15.9328 28.0435 15.8319L29.8221 12.3697C30.0198 11.9664 30.0527 11.4958 29.9209 11.0588C29.7892 10.6218 29.4928 10.2857 29.0975 10.0504L25.639 8.26891C25.5731 8.23529 25.5072 8.13445 25.5072 8.06723L24.8814 4.16807C24.7497 3.32773 24.058 2.72269 23.2345 2.72269C23.1357 2.72269 23.0698 2.72269 22.971 2.7563L19.1502 3.36134C19.0514 3.36134 18.9855 3.36134 18.9196 3.29412L16.1858 0.504202C15.8564 0.168067 15.4611 0 15 0C14.5389 0 14.1436 0.168067 13.8142 0.504202L11.0804 3.29412C11.0145 3.36134 10.9486 3.36134 10.8827 3.36134H10.8498L7.02899 2.7563C6.93017 2.7563 6.8643 2.72269 6.76548 2.72269C5.94203 2.72269 5.25033 3.32773 5.11858 4.16807L4.52569 8.06723C4.52569 8.16807 4.45982 8.23529 4.39394 8.26891L0.902503 10.0504C0.507246 10.2521 0.210804 10.6218 0.0790514 11.0588C-0.0527009 11.4958 -0.0197628 11.9664 0.177866 12.3697L1.92358 15.8992C1.95652 15.9664 1.95652 16.0672 1.92358 16.1681L0.177866 19.6303C-0.0197628 20.0336 -0.0527009 20.5042 0.0790514 20.9412C0.210804 21.3782 0.507246 21.7143 0.902503 21.9496L4.361 23.7311C4.42688 23.7647 4.49275 23.8655 4.49275 23.9328L5.11858 27.8319C5.25033 28.6723 5.94203 29.2773 6.76548 29.2773C6.8643 29.2773 6.93017 29.2773 7.02899 29.2437L10.8498 28.6387C10.9486 28.6387 11.0145 28.6387 11.0804 28.7059L13.8142 31.4958C14.1436 31.8319 14.5389 32 15 32C15.4611 32 15.8564 31.8319 16.1858 31.4958ZM12.0685 27.6975C11.7721 27.395 11.3109 27.1933 10.8827 27.1933C10.7839 27.1933 10.7181 27.1933 10.6192 27.2269L6.79842 27.8319C6.63373 27.8655 6.50198 27.7647 6.46904 27.5966L5.87615 23.6975C5.77734 23.1597 5.44796 22.6891 4.98682 22.4538L1.56126 20.6723C1.46245 20.6387 1.42951 20.5378 1.42951 20.5042C1.42951 20.4706 1.39657 20.3697 1.46245 20.3025L3.20817 16.7731C3.43874 16.3025 3.43874 15.6975 3.20817 15.2269L1.42951 11.6975C1.39657 11.5966 1.39657 11.5294 1.39657 11.4958C1.39657 11.4622 1.42951 11.395 1.52833 11.3277L4.98682 9.54622C5.44796 9.31092 5.81028 8.84034 5.87615 8.30252L6.46904 4.40336C6.50198 4.26891 6.63373 4.13445 6.79842 4.16807L10.6192 4.77311C10.7181 4.77311 10.7839 4.80672 10.8827 4.80672C11.3109 4.80672 11.7391 4.63866 12.0685 4.30252L14.8024 1.51261C14.8682 1.44538 14.9671 1.44538 15 1.44538C15.0329 1.44538 15.1318 1.44538 15.1976 1.51261L17.9315 4.30252C18.2938 4.67227 18.8538 4.87395 19.3808 4.77311L23.2016 4.16807C23.3663 4.13445 23.498 4.23529 23.531 4.40336L24.1238 8.30252C24.2227 8.84034 24.552 9.31092 25.0132 9.54622L28.4717 11.3277C28.5705 11.3613 28.6034 11.4622 28.6034 11.4958C28.6034 11.5294 28.6364 11.6303 28.5705 11.6975L26.8248 15.2269C26.5942 15.6975 26.5942 16.3025 26.8248 16.7731L28.5705 20.3025C28.6034 20.4034 28.6034 20.4706 28.6034 20.5042C28.6034 20.5378 28.5705 20.605 28.4717 20.6723L25.0132 22.4538C24.552 22.6891 24.1897 23.1597 24.1238 23.6975L23.531 27.5966C23.498 27.7311 23.3663 27.8655 23.2016 27.8319L19.3808 27.2269C18.8538 27.1261 18.2938 27.3277 17.9315 27.6975L15.1976 30.4874C15.1318 30.5546 15.0329 30.5546 15 30.5546C14.9671 30.5546 14.8682 30.5546 14.8024 30.4874L12.0685 27.6975ZM21.4888 19.8655L22.3123 14.521C22.3123 14.4874 22.3123 14.4538 22.3123 14.4202C22.3123 13.1092 21.2582 12.0336 19.9736 12.0336H17.2069V10.1176C17.2069 9.04202 16.8775 8.23529 16.2516 7.76471C15.2635 7.02521 14.0119 7.39496 13.8472 7.46219C13.5507 7.56303 13.3531 7.83193 13.3531 8.13445V10.6891C13.3531 12.437 11.3109 13.042 11.2121 13.0756C11.1792 13.0756 11.1462 13.1092 11.1133 13.1092C10.9157 12.9412 10.6522 12.874 10.3557 12.874H8.5112C7.78656 12.874 7.19368 13.479 7.19368 14.2185V20.605C7.19368 21.3445 7.78656 21.9496 8.5112 21.9496H10.3557C10.6522 21.9496 10.9486 21.8487 11.1462 21.6807C11.5415 22.0168 12.0356 22.1849 12.5955 22.1849H18.722C20.303 22.1513 21.3241 21.3109 21.4888 19.8655ZM10.3228 20.5042H8.67589V14.2857H10.3228V20.5042ZM11.7391 19.7647V14.4202C12.2332 14.2521 14.8024 13.2773 14.8024 10.6891V8.7395C15.0329 8.7395 15.2964 8.77311 15.4611 8.90756C15.7905 9.14286 15.8564 9.68067 15.8564 10.084V12.7395C15.8564 13.1429 16.1858 13.4454 16.5481 13.4454H20.0066C20.5007 13.4454 20.9289 13.8487 20.9618 14.3529L20.1383 19.6303C20.1383 19.6303 20.1383 19.6303 20.1383 19.6639C20.1054 19.9664 20.0066 20.7059 18.8208 20.7059H12.6614C12.1673 20.7395 11.7391 20.3025 11.7391 19.7647Z" fill="white"/>
</svg>
