<svg width="20" height="18" viewBox="0 0 20 18" fill="none" xmlns="http://www.w3.org/2000/svg">
<path d="M19.8786 2.50588C19.7733 2.35847 19.6048 2.27424 19.4153 2.27424H4.27474L3.83252 0.442214C3.76935 0.168462 3.53771 0 3.26396 0H0.589619C0.273752 0 0 0.252694 0 0.589619C0 0.926544 0.273752 1.17924 0.589619 1.17924H2.80069L5.98042 14.3404C6.04359 14.6141 6.27523 14.7826 6.54898 14.7826H7.32812C7.01225 15.0142 6.78061 15.3933 6.78061 15.8355C6.78061 16.5725 7.37023 17.1621 8.10726 17.1621C8.84428 17.1621 9.4339 16.5725 9.4339 15.8355C9.4339 15.3933 9.20226 15.0353 8.8864 14.7826H14.214C13.8982 15.0142 13.6665 15.3933 13.6665 15.8355C13.6665 16.5725 14.2561 17.1621 14.9932 17.1621C15.7302 17.1621 16.3198 16.5725 16.3198 15.8355C16.3198 15.3933 16.0882 15.0353 15.7723 14.7826H16.1513C16.4672 14.7826 16.741 14.5299 16.741 14.193C16.741 13.8771 16.4672 13.6033 16.1513 13.6033H7.01225L6.67533 12.2346H17.2885C17.5622 12.2346 17.7938 12.0451 17.857 11.7924L19.9839 3.01127C20.026 2.82175 19.9839 2.63223 19.8786 2.50588ZM10.1288 8.12831L9.91823 6.38052H13.3296L13.119 8.12831H10.1288ZM12.9716 9.30755L12.761 11.0553H10.4657L10.2552 9.30755H12.9716ZM5.26445 6.38052H8.73899L8.94957 8.12831H5.68561L5.26445 6.38052ZM9.77082 5.20128L9.56025 3.45348H13.6665L13.4559 5.20128H9.77082ZM8.38101 3.45348L8.59159 5.20128H4.96964L4.54849 3.45348H8.38101ZM5.95936 9.30755H9.07592L9.28649 11.0553H6.38052L5.95936 9.30755ZM13.9403 11.0553L14.1508 9.30755H17.2463L16.8252 11.0553H13.9403ZM17.5412 8.12831H14.2983L14.5088 6.38052H17.9623L17.5412 8.12831ZM18.2361 5.20128H14.6352L14.8458 3.45348H18.6572L18.2361 5.20128Z" fill="white"/>
</svg>
