<svg width="44" height="38" viewBox="0 0 44 38" fill="none" xmlns="http://www.w3.org/2000/svg">
<path d="M43.7173 5.51097C43.4857 5.18679 43.1152 5.00155 42.6984 5.00155H9.40106L8.42854 0.972524C8.28961 0.370485 7.78019 0 7.17815 0H1.2967C0.602039 0 0 0.555728 0 1.2967C0 2.03767 0.602039 2.5934 1.2967 2.5934H6.15932L13.1522 31.5376C13.2912 32.1396 13.8006 32.5101 14.4026 32.5101H16.1161C15.4215 33.0195 14.912 33.8531 14.912 34.8256C14.912 36.4465 16.2087 37.7432 17.8296 37.7432C19.4505 37.7432 20.7472 36.4465 20.7472 34.8256C20.7472 33.8531 20.2378 33.0658 19.5431 32.5101H31.2597C30.565 33.0195 30.0556 33.8531 30.0556 34.8256C30.0556 36.4465 31.3523 37.7432 32.9732 37.7432C34.5941 37.7432 35.8908 36.4465 35.8908 34.8256C35.8908 33.8531 35.3813 33.0658 34.6867 32.5101H35.5203C36.2149 32.5101 36.817 31.9544 36.817 31.2134C36.817 30.5187 36.2149 29.9167 35.5203 29.9167H15.4215L14.6805 26.9065H38.0211C38.6231 26.9065 39.1325 26.4897 39.2714 25.934L43.9488 6.62242C44.0414 6.20563 43.9488 5.78883 43.7173 5.51097ZM22.2754 17.8759L21.8123 14.0321H29.3147L28.8515 17.8759H22.2754ZM28.5274 20.4693L28.0643 24.3131H23.0164L22.5533 20.4693H28.5274ZM11.5777 14.0321H19.2189L19.682 17.8759H12.5039L11.5777 14.0321ZM21.4881 11.4387L21.025 7.59495H30.0556L29.5925 11.4387H21.4881ZM18.4316 7.59495L18.8948 11.4387H10.9293L10.0031 7.59495H18.4316ZM13.1059 20.4693H19.9599L20.423 24.3131H14.0321L13.1059 20.4693ZM30.6577 24.3131L31.1208 20.4693H37.9284L37.0022 24.3131H30.6577ZM38.5768 17.8759H31.4449L31.908 14.0321H39.503L38.5768 17.8759ZM40.105 11.4387H32.1859L32.649 7.59495H41.0312L40.105 11.4387Z" fill="#BDBDBD"/>
</svg>
